v -1.000 0.000 -1.000
v -1.000 0.000 0.000
v 0.000 0.000 0.000
v 0.000 0.000 -1.000
v 1.000 0.000 -1.000
v 1.000 0.000 0.000
v -1.000 0.000 1.000
v 0.000 0.000 1.000
v 1.000 0.000 1.000

vt 0.000 0.000
vt 0.000 0.500
vt 0.000 1.000
vt 0.500 0.000
vt 0.500 0.500
vt 0.500 1.000
vt 1.000 0.000
vt 1.000 0.500
vt 1.000 1.000

vn 0.000 1.000 0.000

f 1/1/1 2/2/1 3/5/1
f 3/5/1 4/4/1 1/1/1
f 4/4/1 3/5/1 6/8/1
f 6/8/1 5/7/1 4/4/1
f 2/2/1 7/3/1 8/6/1
f 8/6/1 3/5/1 2/2/1
f 3/5/1 8/6/1 9/9/1
f 9/9/1 6/8/1 3/5/1
